<?xml version="1.0" encoding="UTF-8" standalone="no"?>
<!-- Created with Inkscape (http://www.inkscape.org/) -->

<svg
   xmlns:dc="http://purl.org/dc/elements/1.1/"
   xmlns:cc="http://creativecommons.org/ns#"
   xmlns:rdf="http://www.w3.org/1999/02/22-rdf-syntax-ns#"
   xmlns:svg="http://www.w3.org/2000/svg"
   xmlns="http://www.w3.org/2000/svg"
   xmlns:xlink="http://www.w3.org/1999/xlink"
   xmlns:sodipodi="http://sodipodi.sourceforge.net/DTD/sodipodi-0.dtd"
   xmlns:inkscape="http://www.inkscape.org/namespaces/inkscape"
   width="50"
   height="150"
   id="svg2"
   version="1.1"
   inkscape:version="0.48.3.1 r9886"
   inkscape:export-filename="/home/mklug/Bilder/pause.png"
   inkscape:export-xdpi="90"
   inkscape:export-ydpi="90"
   sodipodi:docname="play.svg">
  <defs
     id="defs4">
    <linearGradient
       inkscape:collect="always"
       id="linearGradient3773">
      <stop
         style="stop-color:#666666;stop-opacity:1;"
         offset="0"
         id="stop3775" />
      <stop
         style="stop-color:#666666;stop-opacity:0;"
         offset="1"
         id="stop3777" />
    </linearGradient>
    <radialGradient
       inkscape:collect="always"
       xlink:href="#linearGradient3773"
       id="radialGradient3779"
       cx="14.200345"
       cy="10.402351"
       fx="14.200345"
       fy="10.402351"
       r="19.192898"
       gradientUnits="userSpaceOnUse"
       gradientTransform="matrix(0.08298918,2.3514794,-2.1268821,0.07506262,34.555082,-27.510168)" />
    <radialGradient
       inkscape:collect="always"
       xlink:href="#linearGradient3773"
       id="radialGradient3795"
       gradientUnits="userSpaceOnUse"
       gradientTransform="matrix(0.08298918,2.3514794,-2.1268821,0.07506262,34.555082,-27.510168)"
       cx="14.200345"
       cy="10.402351"
       fx="14.200345"
       fy="10.402351"
       r="19.192898" />
    <radialGradient
       inkscape:collect="always"
       xlink:href="#linearGradient3773"
       id="radialGradient3807"
       gradientUnits="userSpaceOnUse"
       gradientTransform="matrix(0.08298918,2.3514794,-2.1268821,0.07506262,34.555082,-27.510168)"
       cx="14.200345"
       cy="10.402351"
       fx="14.200345"
       fy="10.402351"
       r="19.192898" />
    <radialGradient
       inkscape:collect="always"
       xlink:href="#linearGradient3773"
       id="radialGradient3827"
       gradientUnits="userSpaceOnUse"
       gradientTransform="matrix(0.08298918,2.3514794,-2.1268821,0.07506262,34.555082,-27.510168)"
       cx="14.200345"
       cy="10.402351"
       fx="14.200345"
       fy="10.402351"
       r="19.192898" />
    <radialGradient
       inkscape:collect="always"
       xlink:href="#linearGradient3773"
       id="radialGradient4079"
       gradientUnits="userSpaceOnUse"
       gradientTransform="matrix(0.08298918,2.3514794,-2.1268821,0.07506262,34.555082,-27.510168)"
       cx="14.200345"
       cy="10.402351"
       fx="14.200345"
       fy="10.402351"
       r="19.192898" />
    <radialGradient
       inkscape:collect="always"
       xlink:href="#linearGradient3773"
       id="radialGradient4081"
       gradientUnits="userSpaceOnUse"
       gradientTransform="matrix(0.08298918,2.3514794,-2.1268821,0.07506262,34.555082,-27.510168)"
       cx="14.200345"
       cy="10.402351"
       fx="14.200345"
       fy="10.402351"
       r="19.192898" />
    <radialGradient
       inkscape:collect="always"
       xlink:href="#linearGradient3773"
       id="radialGradient4095"
       gradientUnits="userSpaceOnUse"
       gradientTransform="matrix(0.08298918,2.3514794,-2.1268821,0.07506262,34.555082,-27.510168)"
       cx="14.200345"
       cy="10.402351"
       fx="14.200345"
       fy="10.402351"
       r="19.192898" />
    <radialGradient
       r="19.192898"
       fy="10.402351"
       fx="14.200345"
       cy="10.402351"
       cx="14.200345"
       gradientTransform="matrix(0.08298918,2.3514794,-2.1268821,0.07506262,34.555082,-27.510168)"
       gradientUnits="userSpaceOnUse"
       id="radialGradient3827-9"
       xlink:href="#linearGradient3773-0"
       inkscape:collect="always" />
    <radialGradient
       r="19.192898"
       fy="10.402351"
       fx="14.200345"
       cy="10.402351"
       cx="14.200345"
       gradientTransform="matrix(0.08298918,2.3514794,-2.1268821,0.07506262,34.555082,-27.510168)"
       gradientUnits="userSpaceOnUse"
       id="radialGradient3807-4"
       xlink:href="#linearGradient3773-0"
       inkscape:collect="always" />
    <radialGradient
       r="19.192898"
       fy="10.402351"
       fx="14.200345"
       cy="10.402351"
       cx="14.200345"
       gradientTransform="matrix(0.08298918,2.3514794,-2.1268821,0.07506262,34.555082,-27.510168)"
       gradientUnits="userSpaceOnUse"
       id="radialGradient3795-7"
       xlink:href="#linearGradient3773-0"
       inkscape:collect="always" />
    <radialGradient
       gradientTransform="matrix(0.08298918,2.3514794,-2.1268821,0.07506262,34.555082,-27.510168)"
       gradientUnits="userSpaceOnUse"
       r="19.192898"
       fy="10.402351"
       fx="14.200345"
       cy="10.402351"
       cx="14.200345"
       id="radialGradient3779-4"
       xlink:href="#linearGradient3773-0"
       inkscape:collect="always" />
    <linearGradient
       id="linearGradient3773-0"
       inkscape:collect="always">
      <stop
         id="stop3775-9"
         offset="0"
         style="stop-color:#666666;stop-opacity:1;" />
      <stop
         id="stop3777-8"
         offset="1"
         style="stop-color:#666666;stop-opacity:0;" />
    </linearGradient>
    <radialGradient
       r="19.192898"
       fy="10.402351"
       fx="14.200345"
       cy="10.402351"
       cx="14.200345"
       gradientTransform="matrix(0.08298918,2.3514794,-2.1268821,0.07506262,34.555082,-27.510168)"
       gradientUnits="userSpaceOnUse"
       id="radialGradient3847-1"
       xlink:href="#linearGradient3773-2"
       inkscape:collect="always" />
    <radialGradient
       r="19.192898"
       fy="10.402351"
       fx="14.200345"
       cy="10.402351"
       cx="14.200345"
       gradientTransform="matrix(0.08298918,2.3514794,-2.1268821,0.07506262,34.555082,-27.510168)"
       gradientUnits="userSpaceOnUse"
       id="radialGradient3845-4"
       xlink:href="#linearGradient3773-2"
       inkscape:collect="always" />
    <linearGradient
       id="linearGradient3773-2"
       inkscape:collect="always">
      <stop
         id="stop3775-99"
         offset="0"
         style="stop-color:#666666;stop-opacity:1;" />
      <stop
         id="stop3777-83"
         offset="1"
         style="stop-color:#666666;stop-opacity:0;" />
    </linearGradient>
    <radialGradient
       inkscape:collect="always"
       xlink:href="#linearGradient3773"
       id="radialGradient4832"
       gradientUnits="userSpaceOnUse"
       gradientTransform="matrix(0.08298918,2.3514794,-2.1268821,0.07506262,34.555082,-27.510168)"
       cx="14.200345"
       cy="10.402351"
       fx="14.200345"
       fy="10.402351"
       r="19.192898" />
  </defs>
  <sodipodi:namedview
     id="base"
     pagecolor="#ffffff"
     bordercolor="#666666"
     borderopacity="1.0"
     inkscape:pageopacity="0.0"
     inkscape:pageshadow="2"
     inkscape:zoom="5.6568542"
     inkscape:cx="45.675624"
     inkscape:cy="74.338531"
     inkscape:document-units="px"
     inkscape:current-layer="layer1"
     showgrid="false"
     inkscape:window-width="1528"
     inkscape:window-height="967"
     inkscape:window-x="150"
     inkscape:window-y="24"
     inkscape:window-maximized="0" />
  <metadata
     id="metadata7">
    <rdf:RDF>
      <cc:Work
         rdf:about="">
        <dc:format>image/svg+xml</dc:format>
        <dc:type
           rdf:resource="http://purl.org/dc/dcmitype/StillImage" />
        <dc:title></dc:title>
      </cc:Work>
    </rdf:RDF>
  </metadata>
  <g
     inkscape:label="Ebene 1"
     inkscape:groupmode="layer"
     id="layer1"
     transform="translate(0,-902.3622)">
    <g
       id="g3822"
       transform="translate(-1.5662361e-6,-4e-6)">
      <path
         sodipodi:type="arc"
         style="fill:#ffffff;stroke:none"
         id="path3787"
         sodipodi:cx="27.14785"
         sodipodi:cy="23.483496"
         sodipodi:rx="19.192898"
         sodipodi:ry="19.192898"
         d="m 46.340748,23.483496 c 0,10.599944 -8.592953,19.192898 -19.192898,19.192898 -10.599945,0 -19.1928978,-8.592954 -19.1928978,-19.192898 0,-10.599945 8.5929528,-19.1928981 19.1928978,-19.1928981 10.599945,0 19.192898,8.5929531 19.192898,19.1928981 z"
         transform="matrix(1.2187134,0,0,1.2187135,-8.0854486,948.74255)" />
      <path
         sodipodi:type="arc"
         style="opacity:0.5;fill:url(#radialGradient4832);fill-opacity:1;stroke:none"
         id="path3003"
         sodipodi:cx="27.14785"
         sodipodi:cy="23.483496"
         sodipodi:rx="19.192898"
         sodipodi:ry="19.192898"
         d="m 46.340748,23.483496 c 0,10.599944 -8.592953,19.192898 -19.192898,19.192898 -10.599945,0 -19.1928978,-8.592954 -19.1928978,-19.192898 0,-10.599945 8.5929528,-19.1928981 19.1928978,-19.1928981 10.599945,0 19.192898,8.5929531 19.192898,19.1928981 z"
         transform="matrix(1.2187134,0,0,1.2187135,-8.0854486,948.74255)" />
      <path
         transform="matrix(1.2187134,0,0,1.2187135,-8.0854486,948.74255)"
         d="m 46.340748,23.483496 c 0,10.599944 -8.592953,19.192898 -19.192898,19.192898 -10.599945,0 -19.1928978,-8.592954 -19.1928978,-19.192898 0,-10.599945 8.5929528,-19.1928981 19.1928978,-19.1928981 10.599945,0 19.192898,8.5929531 19.192898,19.1928981 z"
         sodipodi:ry="19.192898"
         sodipodi:rx="19.192898"
         sodipodi:cy="23.483496"
         sodipodi:cx="27.14785"
         id="path2985"
         style="fill:none;stroke:#000000"
         sodipodi:type="arc" />
    </g>
    <g
       id="g4060"
       transform="translate(0,-50.000004)">
      <path
         transform="matrix(1.2187134,0,0,1.2187135,-8.0854502,948.74255)"
         d="m 46.340748,23.483496 c 0,10.599944 -8.592953,19.192898 -19.192898,19.192898 -10.599945,0 -19.1928978,-8.592954 -19.1928978,-19.192898 0,-10.599945 8.5929528,-19.1928981 19.1928978,-19.1928981 10.599945,0 19.192898,8.5929531 19.192898,19.1928981 z"
         sodipodi:ry="19.192898"
         sodipodi:rx="19.192898"
         sodipodi:cy="23.483496"
         sodipodi:cx="27.14785"
         id="path3799"
         style="fill:#ffffff;stroke:none"
         sodipodi:type="arc" />
      <path
         transform="matrix(1.2187134,0,0,1.2187135,-8.0854502,948.74255)"
         d="m 46.340748,23.483496 c 0,10.599944 -8.592953,19.192898 -19.192898,19.192898 -10.599945,0 -19.1928978,-8.592954 -19.1928978,-19.192898 0,-10.599945 8.5929528,-19.1928981 19.1928978,-19.1928981 10.599945,0 19.192898,8.5929531 19.192898,19.1928981 z"
         sodipodi:ry="19.192898"
         sodipodi:rx="19.192898"
         sodipodi:cy="23.483496"
         sodipodi:cx="27.14785"
         id="path3801"
         style="opacity:0.95454544;fill:url(#radialGradient4079);fill-opacity:1;stroke:none"
         sodipodi:type="arc" />
      <path
         sodipodi:type="arc"
         style="fill:none;stroke:#000000"
         id="path3803"
         sodipodi:cx="27.14785"
         sodipodi:cy="23.483496"
         sodipodi:rx="19.192898"
         sodipodi:ry="19.192898"
         d="m 46.340748,23.483496 c 0,10.599944 -8.592953,19.192898 -19.192898,19.192898 -10.599945,0 -19.1928978,-8.592954 -19.1928978,-19.192898 0,-10.599945 8.5929528,-19.1928981 19.1928978,-19.1928981 10.599945,0 19.192898,8.5929531 19.192898,19.1928981 z"
         transform="matrix(1.2187134,0,0,1.2187135,-8.0854502,948.74255)" />
    </g>
    <g
       transform="translate(-1.5662361e-6,49.999996)"
       id="g4085">
      <path
         transform="matrix(1.2187134,0,0,1.2187135,-8.0854486,948.74255)"
         d="m 46.340748,23.483496 c 0,10.599944 -8.592953,19.192898 -19.192898,19.192898 -10.599945,0 -19.1928978,-8.592954 -19.1928978,-19.192898 0,-10.599945 8.5929528,-19.1928981 19.1928978,-19.1928981 10.599945,0 19.192898,8.5929531 19.192898,19.1928981 z"
         sodipodi:ry="19.192898"
         sodipodi:rx="19.192898"
         sodipodi:cy="23.483496"
         sodipodi:cx="27.14785"
         id="path4087"
         style="fill:#ffffff;stroke:none"
         sodipodi:type="arc" />
      <path
         transform="matrix(1.2187134,0,0,1.2187135,-8.0854486,948.74255)"
         d="m 46.340748,23.483496 c 0,10.599944 -8.592953,19.192898 -19.192898,19.192898 -10.599945,0 -19.1928978,-8.592954 -19.1928978,-19.192898 0,-10.599945 8.5929528,-19.1928981 19.1928978,-19.1928981 10.599945,0 19.192898,8.5929531 19.192898,19.1928981 z"
         sodipodi:ry="19.192898"
         sodipodi:rx="19.192898"
         sodipodi:cy="23.483496"
         sodipodi:cx="27.14785"
         id="path4089"
         style="opacity:0.5;fill:url(#radialGradient4095);fill-opacity:1;stroke:none"
         sodipodi:type="arc" />
      <path
         sodipodi:type="arc"
         style="fill:none;stroke:#000000"
         id="path4091"
         sodipodi:cx="27.14785"
         sodipodi:cy="23.483496"
         sodipodi:rx="19.192898"
         sodipodi:ry="19.192898"
         d="m 46.340748,23.483496 c 0,10.599944 -8.592953,19.192898 -19.192898,19.192898 -10.599945,0 -19.1928978,-8.592954 -19.1928978,-19.192898 0,-10.599945 8.5929528,-19.1928981 19.1928978,-19.1928981 10.599945,0 19.192898,8.5929531 19.192898,19.1928981 z"
         transform="matrix(1.2187134,0,0,1.2187135,-8.0854486,948.74255)" />
    </g>
    <rect
       style="opacity:0.95454544;fill:#000000;fill-opacity:1;stroke:none"
       id="rect3903"
       width="14.672465"
       height="14.672465"
       x="17.663765"
       y="920.02594" />
    <rect
       y="970.02594"
       x="17.663765"
       height="14.672465"
       width="14.672465"
       id="rect3905"
       style="opacity:0.95454544;fill:#000000;fill-opacity:1;stroke:none" />
    <rect
       style="opacity:0.95454544;fill:#666666;fill-opacity:1;stroke:none"
       id="rect4830"
       width="14.672465"
       height="14.672465"
       x="17.663765"
       y="1020.0259" />
  </g>
</svg>
