<?xml version="1.0" encoding="UTF-8" standalone="no"?>
<!DOCTYPE svg PUBLIC "-//W3C//DTD SVG 1.1//EN"
 "http://www.w3.org/Graphics/SVG/1.1/DTD/svg11.dtd">
<!-- Generated by graphviz version 2.26.3 (20100126.1600)
 -->
<!-- Title: G Pages: 1 -->
<svg width="399pt" height="828pt"
 viewBox="0.00 0.00 399.00 828.00" xmlns="http://www.w3.org/2000/svg" xmlns:xlink="http://www.w3.org/1999/xlink">
<g id="graph1" class="graph" transform="scale(1 1) rotate(0) translate(4 824)">
<title>G</title>
<polygon fill="white" stroke="white" points="-4,5 -4,-824 396,-824 396,5 -4,5"/>
<g id="graph2" class="cluster"><title>cluster_at</title>
<polyline fill="none" stroke="gray" points="20,-44 371,-44 "/>
<path fill="none" stroke="gray" d="M371,-44C377,-44 383,-50 383,-56"/>
<polyline fill="none" stroke="gray" points="383,-56 383,-718 "/>
<path fill="none" stroke="gray" d="M383,-718C383,-724 377,-730 371,-730"/>
<polyline fill="none" stroke="gray" points="371,-730 20,-730 "/>
<path fill="none" stroke="gray" d="M20,-730C14,-730 8,-724 8,-718"/>
<polyline fill="none" stroke="gray" points="8,-718 8,-56 "/>
<path fill="none" stroke="gray" d="M8,-56C8,-50 14,-44 20,-44"/>
<text text-anchor="middle" x="195.5" y="-716.1" font-family="Times Roman,serif" font-size="11.00" fill="gray">at</text>
</g>
<g id="graph3" class="cluster"><title>cluster_at\mkweb</title>
<polyline fill="none" stroke="gray" points="28,-52 363,-52 "/>
<path fill="none" stroke="gray" d="M363,-52C369,-52 375,-58 375,-64"/>
<polyline fill="none" stroke="gray" points="375,-64 375,-688 "/>
<path fill="none" stroke="gray" d="M375,-688C375,-694 369,-700 363,-700"/>
<polyline fill="none" stroke="gray" points="363,-700 28,-700 "/>
<path fill="none" stroke="gray" d="M28,-700C22,-700 16,-694 16,-688"/>
<polyline fill="none" stroke="gray" points="16,-688 16,-64 "/>
<path fill="none" stroke="gray" d="M16,-64C16,-58 22,-52 28,-52"/>
<text text-anchor="middle" x="195.5" y="-686.1" font-family="Times Roman,serif" font-size="11.00" fill="gray">mkweb</text>
</g>
<g id="graph4" class="cluster"><title>cluster_at\mkweb\upnp</title>
<polyline fill="none" stroke="gray" points="36,-160 355,-160 "/>
<path fill="none" stroke="gray" d="M355,-160C361,-160 367,-166 367,-172"/>
<polyline fill="none" stroke="gray" points="367,-172 367,-658 "/>
<path fill="none" stroke="gray" d="M367,-658C367,-664 361,-670 355,-670"/>
<polyline fill="none" stroke="gray" points="355,-670 36,-670 "/>
<path fill="none" stroke="gray" d="M36,-670C30,-670 24,-664 24,-658"/>
<polyline fill="none" stroke="gray" points="24,-658 24,-172 "/>
<path fill="none" stroke="gray" d="M24,-172C24,-166 30,-160 36,-160"/>
<text text-anchor="middle" x="195.5" y="-656.1" font-family="Times Roman,serif" font-size="11.00" fill="gray">upnp</text>
</g>
<g id="graph5" class="cluster"><title>cluster_at\mkweb\upnp\exception</title>
<polyline fill="none" stroke="gray" points="217,-376 347,-376 "/>
<path fill="none" stroke="gray" d="M347,-376C353,-376 359,-382 359,-388"/>
<polyline fill="none" stroke="gray" points="359,-388 359,-492 "/>
<path fill="none" stroke="gray" d="M359,-492C359,-498 353,-504 347,-504"/>
<polyline fill="none" stroke="gray" points="347,-504 217,-504 "/>
<path fill="none" stroke="gray" d="M217,-504C211,-504 205,-498 205,-492"/>
<polyline fill="none" stroke="gray" points="205,-492 205,-388 "/>
<path fill="none" stroke="gray" d="M205,-388C205,-382 211,-376 217,-376"/>
<text text-anchor="middle" x="282" y="-490.1" font-family="Times Roman,serif" font-size="11.00" fill="gray">exception</text>
</g>
<g id="graph6" class="cluster"><title>cluster_at\mkweb\upnp\xmlparser</title>
<polyline fill="none" stroke="gray" points="44,-512 341,-512 "/>
<path fill="none" stroke="gray" d="M341,-512C347,-512 353,-518 353,-524"/>
<polyline fill="none" stroke="gray" points="353,-524 353,-628 "/>
<path fill="none" stroke="gray" d="M353,-628C353,-634 347,-640 341,-640"/>
<polyline fill="none" stroke="gray" points="341,-640 44,-640 "/>
<path fill="none" stroke="gray" d="M44,-640C38,-640 32,-634 32,-628"/>
<polyline fill="none" stroke="gray" points="32,-628 32,-524 "/>
<path fill="none" stroke="gray" d="M32,-524C32,-518 38,-512 44,-512"/>
<text text-anchor="middle" x="192.5" y="-626.1" font-family="Times Roman,serif" font-size="11.00" fill="gray">xmlparser</text>
</g>
<g id="graph14" class="cluster"><title>cluster_global</title>
<polyline fill="none" stroke="gray" points="240,-738 324,-738 "/>
<path fill="none" stroke="gray" d="M324,-738C330,-738 336,-744 336,-750"/>
<polyline fill="none" stroke="gray" points="336,-750 336,-800 "/>
<path fill="none" stroke="gray" d="M336,-800C336,-806 330,-812 324,-812"/>
<polyline fill="none" stroke="gray" points="324,-812 240,-812 "/>
<path fill="none" stroke="gray" d="M240,-812C234,-812 228,-806 228,-800"/>
<polyline fill="none" stroke="gray" points="228,-800 228,-750 "/>
<path fill="none" stroke="gray" d="M228,-750C228,-744 234,-738 240,-738"/>
<text text-anchor="middle" x="282" y="-798.1" font-family="Times Roman,serif" font-size="11.00" fill="gray">global</text>
</g>
<!-- \\at\\mkweb\\upnp\\exception\\UPnPLogicException -->
<g id="node5" class="node"><title>\\at\\mkweb\\upnp\\exception\\UPnPLogicException</title>
<a xlink:href="src.at.mkweb.upnp.exception.UPnPLogicException.html" xlink:title="UPnPLogicException" target="_parent">
<polygon fill="none" stroke="black" points="351,-474 213,-474 213,-438 351,-438 351,-474"/>
<text text-anchor="middle" x="282" y="-453.1" font-family="Courier,monospace" font-size="11.00">UPnPLogicException</text>
</a>
</g>
<!-- \\Exception -->
<g id="node27" class="node"><title>\\Exception</title>
<ellipse fill="none" stroke="black" cx="79" cy="-18" rx="61.8445" ry="18"/>
<text text-anchor="middle" x="79" y="-13.9" font-family="Times Roman,serif" font-size="14.00" fill="gray">\Exception</text>
</g>
<!-- \\at\\mkweb\\upnp\\exception\\UPnPLogicException&#45;&gt;\\Exception -->
<g id="edge15" class="edge"><title>\\at\\mkweb\\upnp\\exception\\UPnPLogicException&#45;&gt;\\Exception</title>
<path fill="none" stroke="black" d="M215.882,-437.903C211.923,-435.321 208.239,-432.371 205,-429 150.381,-372.164 100.109,-129.281 84.1993,-46.0863"/>
<polygon fill="none" stroke="black" points="87.6071,-45.2702 82.3078,-36.0959 80.7293,-46.5724 87.6071,-45.2702"/>
</g>
<!-- \\at\\mkweb\\upnp\\exception\\UPnPException -->
<g id="node6" class="node"><title>\\at\\mkweb\\upnp\\exception\\UPnPException</title>
<a xlink:href="src.at.mkweb.upnp.exception.UPnPException.html" xlink:title="UPnPException" target="_parent">
<polygon fill="none" stroke="black" points="334,-420 230,-420 230,-384 334,-384 334,-420"/>
<text text-anchor="middle" x="282" y="-399.1" font-family="Courier,monospace" font-size="11.00">UPnPException</text>
</a>
</g>
<!-- \\at\\mkweb\\upnp\\exception\\UPnPException&#45;&gt;\\Exception -->
<g id="edge17" class="edge"><title>\\at\\mkweb\\upnp\\exception\\UPnPException&#45;&gt;\\Exception</title>
<path fill="none" stroke="black" d="M229.928,-394.48C220.781,-391.224 211.973,-386.588 205,-380 106.95,-287.353 85.1764,-114.446 80.3603,-46.4798"/>
<polygon fill="none" stroke="black" points="83.8302,-45.8945 79.7033,-36.1365 76.8443,-46.3382 83.8302,-45.8945"/>
</g>
<!-- \\at\\mkweb\\upnp\\xmlparser\\XMLParser -->
<g id="node8" class="node"><title>\\at\\mkweb\\upnp\\xmlparser\\XMLParser</title>
<a xlink:href="src.at.mkweb.upnp.xmlparser.XMLParser.html" xlink:title="XMLParser" target="_parent">
<polygon fill="none" stroke="black" points="117,-583 41,-583 41,-547 117,-547 117,-583"/>
<text text-anchor="middle" x="79" y="-562.1" font-family="Courier,monospace" font-size="11.00">XMLParser</text>
</a>
</g>
<!-- \\at\\mkweb\\upnp\\xmlparser\\ServiceXMLParser -->
<g id="node9" class="node"><title>\\at\\mkweb\\upnp\\xmlparser\\ServiceXMLParser</title>
<a xlink:href="src.at.mkweb.upnp.xmlparser.ServiceXMLParser.html" xlink:title="ServiceXMLParser" target="_parent">
<polygon fill="none" stroke="black" points="344,-610 220,-610 220,-574 344,-574 344,-610"/>
<text text-anchor="middle" x="282" y="-589.1" font-family="Courier,monospace" font-size="11.00">ServiceXMLParser</text>
</a>
</g>
<!-- \\at\\mkweb\\upnp\\xmlparser\\ServiceXMLParser&#45;&gt;\\at\\mkweb\\upnp\\xmlparser\\XMLParser -->
<g id="edge19" class="edge"><title>\\at\\mkweb\\upnp\\xmlparser\\ServiceXMLParser&#45;&gt;\\at\\mkweb\\upnp\\xmlparser\\XMLParser</title>
<path fill="none" stroke="black" d="M219.437,-583.679C189.996,-579.763 155.405,-575.162 127.919,-571.507"/>
<polygon fill="none" stroke="black" points="128.133,-568.004 117.759,-570.155 127.21,-574.943 128.133,-568.004"/>
</g>
<!-- \\at\\mkweb\\upnp\\xmlparser\\RootXMLParser -->
<g id="node10" class="node"><title>\\at\\mkweb\\upnp\\xmlparser\\RootXMLParser</title>
<a xlink:href="src.at.mkweb.upnp.xmlparser.RootXMLParser.html" xlink:title="RootXMLParser" target="_parent">
<polygon fill="none" stroke="black" points="334,-556 230,-556 230,-520 334,-520 334,-556"/>
<text text-anchor="middle" x="282" y="-535.1" font-family="Courier,monospace" font-size="11.00">RootXMLParser</text>
</a>
</g>
<!-- \\at\\mkweb\\upnp\\xmlparser\\RootXMLParser&#45;&gt;\\at\\mkweb\\upnp\\xmlparser\\XMLParser -->
<g id="edge21" class="edge"><title>\\at\\mkweb\\upnp\\xmlparser\\RootXMLParser&#45;&gt;\\at\\mkweb\\upnp\\xmlparser\\XMLParser</title>
<path fill="none" stroke="black" d="M229.986,-544.918C198.535,-549.101 158.69,-554.401 127.83,-558.505"/>
<polygon fill="none" stroke="black" points="127.186,-555.06 117.734,-559.848 128.109,-561.999 127.186,-555.06"/>
</g>
<!-- \\at\\mkweb\\upnp\\Client -->
<g id="node11" class="node"><title>\\at\\mkweb\\upnp\\Client</title>
<a xlink:href="src.at.mkweb.upnp.Client.html" xlink:title="Client" target="_parent">
<polygon fill="none" stroke="black" points="310,-366 254,-366 254,-330 310,-330 310,-366"/>
<text text-anchor="middle" x="282" y="-345.1" font-family="Courier,monospace" font-size="11.00">Client</text>
</a>
</g>
<!-- \\at\\mkweb\\upnp\\Autoloader -->
<g id="node12" class="node"><title>\\at\\mkweb\\upnp\\Autoloader</title>
<a xlink:href="src.at.mkweb.upnp.autoload.html" xlink:title="Autoloader" target="_parent">
<polygon fill="none" stroke="black" points="324,-312 240,-312 240,-276 324,-276 324,-312"/>
<text text-anchor="middle" x="282" y="-291.1" font-family="Courier,monospace" font-size="11.00">Autoloader</text>
</a>
</g>
<!-- \\at\\mkweb\\upnp\\UPnP -->
<g id="node13" class="node"><title>\\at\\mkweb\\upnp\\UPnP</title>
<a xlink:href="src.at.mkweb.upnp.UPnP.html" xlink:title="UPnP" target="_parent">
<polygon fill="none" stroke="black" points="309,-258 255,-258 255,-222 309,-222 309,-258"/>
<text text-anchor="middle" x="282" y="-237.1" font-family="Courier,monospace" font-size="11.00">UPnP</text>
</a>
</g>
<!-- \\at\\mkweb\\upnp\\Device -->
<g id="node14" class="node"><title>\\at\\mkweb\\upnp\\Device</title>
<a xlink:href="src.at.mkweb.upnp.Device.html" xlink:title="Device" target="_parent">
<polygon fill="none" stroke="black" points="310,-204 254,-204 254,-168 310,-168 310,-204"/>
<text text-anchor="middle" x="282" y="-183.1" font-family="Courier,monospace" font-size="11.00">Device</text>
</a>
</g>
<!-- \\at\\mkweb\\Config -->
<g id="node17" class="node"><title>\\at\\mkweb\\Config</title>
<a xlink:href="src.at.mkweb.Config.html" xlink:title="Config" target="_parent">
<polygon fill="none" stroke="black" points="310,-150 254,-150 254,-114 310,-114 310,-150"/>
<text text-anchor="middle" x="282" y="-129.1" font-family="Courier,monospace" font-size="11.00">Config</text>
</a>
</g>
<!-- \\at\\mkweb\\Logger -->
<g id="node18" class="node"><title>\\at\\mkweb\\Logger</title>
<a xlink:href="src.at.mkweb.Logger.html" xlink:title="Logger" target="_parent">
<polygon fill="none" stroke="black" points="310,-96 254,-96 254,-60 310,-60 310,-96"/>
<text text-anchor="middle" x="282" y="-75.1" font-family="Courier,monospace" font-size="11.00">Logger</text>
</a>
</g>
<!-- \\AjaxHandler -->
<g id="node25" class="node"><title>\\AjaxHandler</title>
<a xlink:href="class.AjaxHandler.html" xlink:title="AjaxHandler" target="_parent">
<polygon fill="none" stroke="black" points="327,-782 237,-782 237,-746 327,-746 327,-782"/>
<text text-anchor="middle" x="282" y="-761.1" font-family="Courier,monospace" font-size="11.00">AjaxHandler</text>
</a>
</g>
</g>
</svg>
