<?xml version="1.0" encoding="UTF-8" standalone="no"?>
<!DOCTYPE svg PUBLIC "-//W3C//DTD SVG 1.1//EN"
 "http://www.w3.org/Graphics/SVG/1.1/DTD/svg11.dtd">
<!-- Generated by graphviz version 2.26.3 (20100126.1600)
 -->
<!-- Title: G Pages: 1 -->
<svg width="409pt" height="920pt"
 viewBox="0.00 0.00 409.00 920.00" xmlns="http://www.w3.org/2000/svg" xmlns:xlink="http://www.w3.org/1999/xlink">
<g id="graph1" class="graph" transform="scale(1 1) rotate(0) translate(4 916)">
<title>G</title>
<polygon fill="white" stroke="white" points="-4,5 -4,-916 406,-916 406,5 -4,5"/>
<g id="graph2" class="cluster"><title>cluster_at</title>
<polyline fill="none" stroke="gray" points="20,-44 381,-44 "/>
<path fill="none" stroke="gray" d="M381,-44C387,-44 393,-50 393,-56"/>
<polyline fill="none" stroke="gray" points="393,-56 393,-892 "/>
<path fill="none" stroke="gray" d="M393,-892C393,-898 387,-904 381,-904"/>
<polyline fill="none" stroke="gray" points="381,-904 20,-904 "/>
<path fill="none" stroke="gray" d="M20,-904C14,-904 8,-898 8,-892"/>
<polyline fill="none" stroke="gray" points="8,-892 8,-56 "/>
<path fill="none" stroke="gray" d="M8,-56C8,-50 14,-44 20,-44"/>
<text text-anchor="middle" x="200.5" y="-890.1" font-family="Times Roman,serif" font-size="11.00" fill="gray">at</text>
</g>
<g id="graph3" class="cluster"><title>cluster_at\mkweb</title>
<polyline fill="none" stroke="gray" points="28,-52 373,-52 "/>
<path fill="none" stroke="gray" d="M373,-52C379,-52 385,-58 385,-64"/>
<polyline fill="none" stroke="gray" points="385,-64 385,-862 "/>
<path fill="none" stroke="gray" d="M385,-862C385,-868 379,-874 373,-874"/>
<polyline fill="none" stroke="gray" points="373,-874 28,-874 "/>
<path fill="none" stroke="gray" d="M28,-874C22,-874 16,-868 16,-862"/>
<polyline fill="none" stroke="gray" points="16,-862 16,-64 "/>
<path fill="none" stroke="gray" d="M16,-64C16,-58 22,-52 28,-52"/>
<text text-anchor="middle" x="200.5" y="-860.1" font-family="Times Roman,serif" font-size="11.00" fill="gray">mkweb</text>
</g>
<g id="graph4" class="cluster"><title>cluster_at\mkweb\upnp</title>
<polyline fill="none" stroke="gray" points="36,-60 365,-60 "/>
<path fill="none" stroke="gray" d="M365,-60C371,-60 377,-66 377,-72"/>
<polyline fill="none" stroke="gray" points="377,-72 377,-832 "/>
<path fill="none" stroke="gray" d="M377,-832C377,-838 371,-844 365,-844"/>
<polyline fill="none" stroke="gray" points="365,-844 36,-844 "/>
<path fill="none" stroke="gray" d="M36,-844C30,-844 24,-838 24,-832"/>
<polyline fill="none" stroke="gray" points="24,-832 24,-72 "/>
<path fill="none" stroke="gray" d="M24,-72C24,-66 30,-60 36,-60"/>
<text text-anchor="middle" x="200.5" y="-830.1" font-family="Times Roman,serif" font-size="11.00" fill="gray">upnp</text>
</g>
<g id="graph5" class="cluster"><title>cluster_at\mkweb\upnp\backend</title>
<polyline fill="none" stroke="gray" points="44,-440 357,-440 "/>
<path fill="none" stroke="gray" d="M357,-440C363,-440 369,-446 369,-452"/>
<polyline fill="none" stroke="gray" points="369,-452 369,-802 "/>
<path fill="none" stroke="gray" d="M369,-802C369,-808 363,-814 357,-814"/>
<polyline fill="none" stroke="gray" points="357,-814 44,-814 "/>
<path fill="none" stroke="gray" d="M44,-814C38,-814 32,-808 32,-802"/>
<polyline fill="none" stroke="gray" points="32,-802 32,-452 "/>
<path fill="none" stroke="gray" d="M32,-452C32,-446 38,-440 44,-440"/>
<text text-anchor="middle" x="200.5" y="-800.1" font-family="Times Roman,serif" font-size="11.00" fill="gray">backend</text>
</g>
<g id="graph6" class="cluster"><title>cluster_at\mkweb\upnp\backend\xmlparser</title>
<polyline fill="none" stroke="gray" points="52,-656 349,-656 "/>
<path fill="none" stroke="gray" d="M349,-656C355,-656 361,-662 361,-668"/>
<polyline fill="none" stroke="gray" points="361,-668 361,-772 "/>
<path fill="none" stroke="gray" d="M361,-772C361,-778 355,-784 349,-784"/>
<polyline fill="none" stroke="gray" points="349,-784 52,-784 "/>
<path fill="none" stroke="gray" d="M52,-784C46,-784 40,-778 40,-772"/>
<polyline fill="none" stroke="gray" points="40,-772 40,-668 "/>
<path fill="none" stroke="gray" d="M40,-668C40,-662 46,-656 52,-656"/>
<text text-anchor="middle" x="200.5" y="-770.1" font-family="Times Roman,serif" font-size="11.00" fill="gray">xmlparser</text>
</g>
<g id="graph8" class="cluster"><title>cluster_at\mkweb\upnp\exception</title>
<polyline fill="none" stroke="gray" points="225,-304 355,-304 "/>
<path fill="none" stroke="gray" d="M355,-304C361,-304 367,-310 367,-316"/>
<polyline fill="none" stroke="gray" points="367,-316 367,-420 "/>
<path fill="none" stroke="gray" d="M367,-420C367,-426 361,-432 355,-432"/>
<polyline fill="none" stroke="gray" points="355,-432 225,-432 "/>
<path fill="none" stroke="gray" d="M225,-432C219,-432 213,-426 213,-420"/>
<polyline fill="none" stroke="gray" points="213,-420 213,-316 "/>
<path fill="none" stroke="gray" d="M213,-316C213,-310 219,-304 225,-304"/>
<text text-anchor="middle" x="290" y="-418.1" font-family="Times Roman,serif" font-size="11.00" fill="gray">exception</text>
</g>
<g id="graph9" class="cluster"><title>cluster_at\mkweb\upnp\frontend</title>
<polyline fill="none" stroke="gray" points="248,-222 332,-222 "/>
<path fill="none" stroke="gray" d="M332,-222C338,-222 344,-228 344,-234"/>
<polyline fill="none" stroke="gray" points="344,-234 344,-284 "/>
<path fill="none" stroke="gray" d="M344,-284C344,-290 338,-296 332,-296"/>
<polyline fill="none" stroke="gray" points="332,-296 248,-296 "/>
<path fill="none" stroke="gray" d="M248,-296C242,-296 236,-290 236,-284"/>
<polyline fill="none" stroke="gray" points="236,-284 236,-234 "/>
<path fill="none" stroke="gray" d="M236,-234C236,-228 242,-222 248,-222"/>
<text text-anchor="middle" x="290" y="-282.1" font-family="Times Roman,serif" font-size="11.00" fill="gray">frontend</text>
</g>
<!-- \\at\\mkweb\\upnp\\backend\\xmlparser\\XMLParser -->
<g id="node6" class="node"><title>\\at\\mkweb\\upnp\\backend\\xmlparser\\XMLParser</title>
<a xlink:href="src.at.mkweb.upnp.backend.xmlparser.XMLParser.html" xlink:title="XMLParser" target="_parent">
<polygon fill="none" stroke="black" points="125,-727 49,-727 49,-691 125,-691 125,-727"/>
<text text-anchor="middle" x="87" y="-706.1" font-family="Courier,monospace" font-size="11.00">XMLParser</text>
</a>
</g>
<!-- \\at\\mkweb\\upnp\\backend\\xmlparser\\ServiceXMLParser -->
<g id="node7" class="node"><title>\\at\\mkweb\\upnp\\backend\\xmlparser\\ServiceXMLParser</title>
<a xlink:href="src.at.mkweb.upnp.backend.xmlparser.ServiceXMLParser.html" xlink:title="ServiceXMLParser" target="_parent">
<polygon fill="none" stroke="black" points="352,-754 228,-754 228,-718 352,-718 352,-754"/>
<text text-anchor="middle" x="290" y="-733.1" font-family="Courier,monospace" font-size="11.00">ServiceXMLParser</text>
</a>
</g>
<!-- \\at\\mkweb\\upnp\\backend\\xmlparser\\ServiceXMLParser&#45;&gt;\\at\\mkweb\\upnp\\backend\\xmlparser\\XMLParser -->
<g id="edge31" class="edge"><title>\\at\\mkweb\\upnp\\backend\\xmlparser\\ServiceXMLParser&#45;&gt;\\at\\mkweb\\upnp\\backend\\xmlparser\\XMLParser</title>
<path fill="none" stroke="black" d="M227.437,-727.679C197.996,-723.763 163.405,-719.162 135.919,-715.507"/>
<polygon fill="none" stroke="black" points="136.133,-712.004 125.759,-714.155 135.21,-718.943 136.133,-712.004"/>
</g>
<!-- \\at\\mkweb\\upnp\\backend\\xmlparser\\RootXMLParser -->
<g id="node8" class="node"><title>\\at\\mkweb\\upnp\\backend\\xmlparser\\RootXMLParser</title>
<a xlink:href="src.at.mkweb.upnp.backend.xmlparser.RootXMLParser.html" xlink:title="RootXMLParser" target="_parent">
<polygon fill="none" stroke="black" points="342,-700 238,-700 238,-664 342,-664 342,-700"/>
<text text-anchor="middle" x="290" y="-679.1" font-family="Courier,monospace" font-size="11.00">RootXMLParser</text>
</a>
</g>
<!-- \\at\\mkweb\\upnp\\backend\\xmlparser\\RootXMLParser&#45;&gt;\\at\\mkweb\\upnp\\backend\\xmlparser\\XMLParser -->
<g id="edge33" class="edge"><title>\\at\\mkweb\\upnp\\backend\\xmlparser\\RootXMLParser&#45;&gt;\\at\\mkweb\\upnp\\backend\\xmlparser\\XMLParser</title>
<path fill="none" stroke="black" d="M237.986,-688.918C206.535,-693.101 166.69,-698.401 135.83,-702.505"/>
<polygon fill="none" stroke="black" points="135.186,-699.06 125.734,-703.848 136.109,-705.999 135.186,-699.06"/>
</g>
<!-- \\at\\mkweb\\upnp\\backend\\Client -->
<g id="node9" class="node"><title>\\at\\mkweb\\upnp\\backend\\Client</title>
<a xlink:href="src.at.mkweb.upnp.backend.Client.html" xlink:title="Client" target="_parent">
<polygon fill="none" stroke="black" points="318,-646 262,-646 262,-610 318,-610 318,-646"/>
<text text-anchor="middle" x="290" y="-625.1" font-family="Courier,monospace" font-size="11.00">Client</text>
</a>
</g>
<!-- \\at\\mkweb\\upnp\\backend\\UPnP -->
<g id="node10" class="node"><title>\\at\\mkweb\\upnp\\backend\\UPnP</title>
<a xlink:href="src.at.mkweb.upnp.backend.UPnP.html" xlink:title="UPnP" target="_parent">
<polygon fill="none" stroke="black" points="317,-592 263,-592 263,-556 317,-556 317,-592"/>
<text text-anchor="middle" x="290" y="-571.1" font-family="Courier,monospace" font-size="11.00">UPnP</text>
</a>
</g>
<!-- \\at\\mkweb\\upnp\\backend\\Device -->
<g id="node11" class="node"><title>\\at\\mkweb\\upnp\\backend\\Device</title>
<a xlink:href="src.at.mkweb.upnp.backend.Device.html" xlink:title="Device" target="_parent">
<polygon fill="none" stroke="black" points="318,-538 262,-538 262,-502 318,-502 318,-538"/>
<text text-anchor="middle" x="290" y="-517.1" font-family="Courier,monospace" font-size="11.00">Device</text>
</a>
</g>
<!-- \\at\\mkweb\\upnp\\backend\\AjaxHandler -->
<g id="node12" class="node"><title>\\at\\mkweb\\upnp\\backend\\AjaxHandler</title>
<a xlink:href="src.at.mkweb.upnp.backend.AjaxHandler.html" xlink:title="AjaxHandler" target="_parent">
<polygon fill="none" stroke="black" points="335,-484 245,-484 245,-448 335,-448 335,-484"/>
<text text-anchor="middle" x="290" y="-463.1" font-family="Courier,monospace" font-size="11.00">AjaxHandler</text>
</a>
</g>
<!-- \\at\\mkweb\\upnp\\exception\\UPnPLogicException -->
<g id="node15" class="node"><title>\\at\\mkweb\\upnp\\exception\\UPnPLogicException</title>
<a xlink:href="src.at.mkweb.upnp.exception.UPnPLogicException.html" xlink:title="UPnPLogicException" target="_parent">
<polygon fill="none" stroke="black" points="359,-402 221,-402 221,-366 359,-366 359,-402"/>
<text text-anchor="middle" x="290" y="-381.1" font-family="Courier,monospace" font-size="11.00">UPnPLogicException</text>
</a>
</g>
<!-- \\Exception -->
<g id="node40" class="node"><title>\\Exception</title>
<ellipse fill="none" stroke="black" cx="87" cy="-18" rx="61.8445" ry="18"/>
<text text-anchor="middle" x="87" y="-13.9" font-family="Times Roman,serif" font-size="14.00" fill="gray">\Exception</text>
</g>
<!-- \\at\\mkweb\\upnp\\exception\\UPnPLogicException&#45;&gt;\\Exception -->
<g id="edge27" class="edge"><title>\\at\\mkweb\\upnp\\exception\\UPnPLogicException&#45;&gt;\\Exception</title>
<path fill="none" stroke="black" d="M224.469,-365.914C220.32,-363.328 216.437,-360.374 213,-357 123.2,-268.856 96.7806,-110.966 89.5408,-46.5473"/>
<polygon fill="none" stroke="black" points="92.9939,-45.9168 88.4683,-36.3372 86.0322,-46.6482 92.9939,-45.9168"/>
</g>
<!-- \\at\\mkweb\\upnp\\exception\\UPnPException -->
<g id="node16" class="node"><title>\\at\\mkweb\\upnp\\exception\\UPnPException</title>
<a xlink:href="src.at.mkweb.upnp.exception.UPnPException.html" xlink:title="UPnPException" target="_parent">
<polygon fill="none" stroke="black" points="342,-348 238,-348 238,-312 342,-312 342,-348"/>
<text text-anchor="middle" x="290" y="-327.1" font-family="Courier,monospace" font-size="11.00">UPnPException</text>
</a>
</g>
<!-- \\at\\mkweb\\upnp\\exception\\UPnPException&#45;&gt;\\Exception -->
<g id="edge29" class="edge"><title>\\at\\mkweb\\upnp\\exception\\UPnPException&#45;&gt;\\Exception</title>
<path fill="none" stroke="black" d="M237.842,-316.112C228.809,-311.999 220.064,-306.728 213,-300 137.308,-227.906 103.831,-102.093 92.1671,-46.1743"/>
<polygon fill="none" stroke="black" points="95.578,-45.3822 90.1782,-36.2667 88.7149,-46.76 95.578,-45.3822"/>
</g>
<!-- \\at\\mkweb\\upnp\\frontend\\AuthManager -->
<g id="node18" class="node"><title>\\at\\mkweb\\upnp\\frontend\\AuthManager</title>
<a xlink:href="src.at.mkweb.upnp.frontend.AuthManager.html" xlink:title="AuthManager" target="_parent">
<polygon fill="none" stroke="black" points="335,-266 245,-266 245,-230 335,-230 335,-266"/>
<text text-anchor="middle" x="290" y="-245.1" font-family="Courier,monospace" font-size="11.00">AuthManager</text>
</a>
</g>
<!-- \\at\\mkweb\\upnp\\Autoloader -->
<g id="node19" class="node"><title>\\at\\mkweb\\upnp\\Autoloader</title>
<a xlink:href="src.at.mkweb.upnp.autoload.html" xlink:title="Autoloader" target="_parent">
<polygon fill="none" stroke="black" points="332,-212 248,-212 248,-176 332,-176 332,-212"/>
<text text-anchor="middle" x="290" y="-191.1" font-family="Courier,monospace" font-size="11.00">Autoloader</text>
</a>
</g>
<!-- \\at\\mkweb\\upnp\\Config -->
<g id="node20" class="node"><title>\\at\\mkweb\\upnp\\Config</title>
<a xlink:href="src.at.mkweb.upnp.Config.html" xlink:title="Config" target="_parent">
<polygon fill="none" stroke="black" points="318,-158 262,-158 262,-122 318,-122 318,-158"/>
<text text-anchor="middle" x="290" y="-137.1" font-family="Courier,monospace" font-size="11.00">Config</text>
</a>
</g>
<!-- \\at\\mkweb\\upnp\\Logger -->
<g id="node21" class="node"><title>\\at\\mkweb\\upnp\\Logger</title>
<a xlink:href="src.at.mkweb.upnp.Logger.html" xlink:title="Logger" target="_parent">
<polygon fill="none" stroke="black" points="318,-104 262,-104 262,-68 318,-68 318,-104"/>
<text text-anchor="middle" x="290" y="-83.1" font-family="Courier,monospace" font-size="11.00">Logger</text>
</a>
</g>
</g>
</svg>
